<svg width="1097" height="894" viewBox="0 0 1097 894" fill="none" xmlns="http://www.w3.org/2000/svg">
<g filter="url(#filter0_f_30_49)">
<rect x="450.042" y="345.656" width="305.272" height="257.595" rx="26" fill="url(#paint0_diamond_30_49)" fill-opacity="0.21"/>
</g>
<g filter="url(#filter1_f_30_49)">
<rect x="250" y="310" width="305.272" height="257.595" rx="26" fill="url(#paint1_linear_30_49)" fill-opacity="0.21"/>
</g>
<g filter="url(#filter2_f_30_49)">
<rect x="450.042" y="386.405" width="305.272" height="257.595" rx="26" fill="url(#paint2_diamond_30_49)" fill-opacity="0.21"/>
</g>
<g filter="url(#filter3_f_30_49)">
<rect x="541.728" y="369.669" width="305.272" height="257.595" rx="26" fill="url(#paint3_diamond_30_49)" fill-opacity="0.21"/>
</g>
<g filter="url(#filter4_f_30_49)">
<rect x="450.042" y="345.656" width="305.272" height="257.595" rx="26" fill="url(#paint4_diamond_30_49)" fill-opacity="0.21"/>
</g>
<g filter="url(#filter5_f_30_49)">
<rect x="450.042" y="386.405" width="305.272" height="257.595" rx="26" fill="url(#paint5_diamond_30_49)" fill-opacity="0.21"/>
</g>
<g filter="url(#filter6_b_30_49)">
<rect x="253" y="54" width="468" height="571" rx="45" fill="white" fill-opacity="0.35"/>
</g>
<path d="M723.178 162.58C735.502 156.285 745.851 146.714 753.086 134.92C760.96 121.941 765.035 107.012 764.846 91.8311C765.052 87.2621 764.107 82.7143 762.096 78.6087C760.267 75.3393 757.301 72.8572 753.76 71.6361C747.369 69.5178 740.392 72.1633 734.57 75.5444C720.851 83.5132 709.959 95.5692 696.766 104.384C691.345 108.008 677.4 114.915 678.091 102.731C678.196 98.7522 679.002 94.8238 680.474 91.1241C683.178 85.0725 686.359 79.245 689.989 73.6992C691.247 72.0387 691.869 69.982 691.741 67.9034C691.614 65.8232 690.746 63.8588 689.294 62.3647C687.84 60.8721 685.9 59.9483 683.826 59.7626C682.502 59.7224 681.179 59.4474 679.858 59.4626L679.857 59.4645C669.492 59.4171 659.306 62.178 650.384 67.4525C646.102 70.0173 641.635 72.276 637.219 74.614C636.166 75.1499 635.056 75.5749 633.913 75.8782C629.475 77.128 627.809 76.1787 626.385 71.6906C626.162 70.9883 625.946 70.2855 625.71 69.5882C624.04 64.6518 621.791 63.4794 616.704 64.9261C615.569 65.2499 614.465 65.6801 613.343 66.0516C606.771 68.2286 600.223 70.4864 593.614 72.5454C589.549 73.8119 586.746 71.6141 587.235 67.4476L587.236 67.4457C587.553 64.9672 588.247 62.5508 589.294 60.282C593.662 50.652 600.636 42.732 606.846 34.3354L606.845 34.335C609.092 31.3995 610.552 27.9382 611.087 24.2794C611.443 21.9359 610.814 19.5486 609.35 17.6847C607.888 15.8192 605.719 14.6417 603.358 14.4275C596.533 13.6771 589.679 15.5654 584.204 19.7068C576.097 25.0165 568.408 31.0153 560.854 37.1088C556.509 40.8749 552.363 44.8671 548.44 49.0731C545.515 52.4338 541.658 54.8572 537.362 56.0336C536.16 56.1487 534.953 56.1427 533.753 56.0148C533.814 54.5291 533.998 53.0507 534.304 51.5933C535.848 46.1556 539.179 41.3958 543.756 38.0788C545.315 36.973 547.529 36.3771 548.098 33.3043C546.859 33.5057 545.653 33.8709 544.512 34.3918C542.588 35.7343 540.744 37.1913 538.989 38.7488C535.09 42.6197 532.348 47.5029 531.073 52.8451C530.345 54.3084 530.542 56.0629 531.579 57.3256C532.614 58.5897 534.295 59.1272 535.872 58.6989C538.187 58.4496 540.429 57.741 542.467 56.6164C551.325 51.6328 558.265 44.1774 565.229 37.0824C573.283 28.8381 583.04 22.4499 593.818 18.3715C596.704 17.2782 599.763 16.715 602.848 16.7095C604.523 16.5825 606.156 17.2686 607.237 18.5539C608.319 19.8396 608.713 21.5683 608.298 23.196C608.224 24.5246 607.913 25.8286 607.375 27.0458C606.11 29.5279 604.645 31.917 603.14 34.2666C599.651 39.7139 595.934 45.0198 592.604 50.5605C589.882 55.0913 587.429 59.8021 585.158 64.5749L585.16 64.5773C584.145 66.1604 583.87 68.1097 584.406 69.9131C584.942 71.7166 586.237 73.1973 587.951 73.9698C589.267 74.602 590.707 74.9295 592.165 74.9287C596.433 74.7248 600.598 73.5573 604.349 71.5139C608.747 69.1086 613.642 67.7599 618.65 67.5733C619.823 67.4494 620.996 67.8081 621.899 68.5681C622.801 69.328 623.355 70.4221 623.433 71.6006C624.766 78.1266 628.464 80.3566 634.575 78.1783C639.564 76.3733 644.355 74.0606 648.871 71.2766C656.402 66.8987 664.78 64.178 673.443 63.2896C677.7 62.8113 682.009 63.1726 686.128 64.352C687.311 64.5772 688.317 65.35 688.841 66.4349C689.364 67.5174 689.343 68.7876 688.783 69.8534C688.129 71.4987 687.296 73.0667 686.296 74.5277C683.684 78.5434 681.446 82.789 679.611 87.2144C677.609 91.7944 674.757 95.949 674.601 101.151C674.452 106.119 677.561 111.565 682.486 112.236C684.481 112.399 686.486 112.096 688.345 111.352C708.979 104.307 721.703 81.9391 742.584 75.6632C746.785 74.0584 751.456 74.2146 755.539 76.0971C761.14 79.2868 762.546 86.6943 762.519 93.141C762.467 109.395 757.097 125.183 747.231 138.099C737.363 151.013 723.541 160.347 707.875 164.671L722.83 149.72C723.63 148.92 724.492 147.779 723.968 146.778C723.215 145.338 721.019 146.299 719.828 147.403L719.827 147.405C711.806 154.838 704.389 162.899 697.646 171.509C699.568 172.846 702.029 173.133 704.206 172.275C710.211 170.939 716.214 169.59 722.214 168.229C726.033 167.363 734.715 167.493 736.65 163.359C733.844 163.142 731.021 163.263 728.244 163.724C725.339 163.505 722.415 163.691 719.562 164.277C720.784 163.745 721.989 163.179 723.177 162.578L723.178 162.58Z" fill="black"/>
<defs>
<filter id="filter0_f_30_49" x="200.042" y="95.6557" width="805.272" height="757.595" filterUnits="userSpaceOnUse" color-interpolation-filters="sRGB">
<feFlood flood-opacity="0" result="BackgroundImageFix"/>
<feBlend mode="normal" in="SourceGraphic" in2="BackgroundImageFix" result="shape"/>
<feGaussianBlur stdDeviation="125" result="effect1_foregroundBlur_30_49"/>
</filter>
<filter id="filter1_f_30_49" x="0" y="60" width="805.272" height="757.595" filterUnits="userSpaceOnUse" color-interpolation-filters="sRGB">
<feFlood flood-opacity="0" result="BackgroundImageFix"/>
<feBlend mode="normal" in="SourceGraphic" in2="BackgroundImageFix" result="shape"/>
<feGaussianBlur stdDeviation="125" result="effect1_foregroundBlur_30_49"/>
</filter>
<filter id="filter2_f_30_49" x="200.042" y="136.405" width="805.272" height="757.595" filterUnits="userSpaceOnUse" color-interpolation-filters="sRGB">
<feFlood flood-opacity="0" result="BackgroundImageFix"/>
<feBlend mode="normal" in="SourceGraphic" in2="BackgroundImageFix" result="shape"/>
<feGaussianBlur stdDeviation="125" result="effect1_foregroundBlur_30_49"/>
</filter>
<filter id="filter3_f_30_49" x="291.728" y="119.669" width="805.272" height="757.595" filterUnits="userSpaceOnUse" color-interpolation-filters="sRGB">
<feFlood flood-opacity="0" result="BackgroundImageFix"/>
<feBlend mode="normal" in="SourceGraphic" in2="BackgroundImageFix" result="shape"/>
<feGaussianBlur stdDeviation="125" result="effect1_foregroundBlur_30_49"/>
</filter>
<filter id="filter4_f_30_49" x="200.042" y="95.6557" width="805.272" height="757.595" filterUnits="userSpaceOnUse" color-interpolation-filters="sRGB">
<feFlood flood-opacity="0" result="BackgroundImageFix"/>
<feBlend mode="normal" in="SourceGraphic" in2="BackgroundImageFix" result="shape"/>
<feGaussianBlur stdDeviation="125" result="effect1_foregroundBlur_30_49"/>
</filter>
<filter id="filter5_f_30_49" x="200.042" y="136.405" width="805.272" height="757.595" filterUnits="userSpaceOnUse" color-interpolation-filters="sRGB">
<feFlood flood-opacity="0" result="BackgroundImageFix"/>
<feBlend mode="normal" in="SourceGraphic" in2="BackgroundImageFix" result="shape"/>
<feGaussianBlur stdDeviation="125" result="effect1_foregroundBlur_30_49"/>
</filter>
<filter id="filter6_b_30_49" x="213" y="14" width="548" height="651" filterUnits="userSpaceOnUse" color-interpolation-filters="sRGB">
<feFlood flood-opacity="0" result="BackgroundImageFix"/>
<feGaussianBlur in="BackgroundImage" stdDeviation="20"/>
<feComposite in2="SourceAlpha" operator="in" result="effect1_backgroundBlur_30_49"/>
<feBlend mode="normal" in="SourceGraphic" in2="effect1_backgroundBlur_30_49" result="shape"/>
</filter>
<radialGradient id="paint0_diamond_30_49" cx="0" cy="0" r="1" gradientUnits="userSpaceOnUse" gradientTransform="translate(602.678 474.453) rotate(90) scale(128.797 152.636)">
<stop stop-color="#D943E8"/>
<stop offset="1" stop-color="#001EFF"/>
</radialGradient>
<linearGradient id="paint1_linear_30_49" x1="402.636" y1="310" x2="402.636" y2="567.595" gradientUnits="userSpaceOnUse">
<stop stop-color="#D943E8"/>
<stop offset="1" stop-color="#FF43E1"/>
</linearGradient>
<radialGradient id="paint2_diamond_30_49" cx="0" cy="0" r="1" gradientUnits="userSpaceOnUse" gradientTransform="translate(602.678 515.203) rotate(90) scale(128.797 152.636)">
<stop offset="0.583333" stop-color="#001AFF"/>
<stop offset="0.901042" stop-color="#D943E8"/>
<stop offset="1" stop-color="#001CFF"/>
</radialGradient>
<radialGradient id="paint3_diamond_30_49" cx="0" cy="0" r="1" gradientUnits="userSpaceOnUse" gradientTransform="translate(694.364 498.466) rotate(90) scale(128.797 152.636)">
<stop stop-color="#D943E8"/>
<stop offset="1" stop-color="#001EFF"/>
</radialGradient>
<radialGradient id="paint4_diamond_30_49" cx="0" cy="0" r="1" gradientUnits="userSpaceOnUse" gradientTransform="translate(602.678 474.453) rotate(90) scale(128.797 152.636)">
<stop stop-color="#D943E8"/>
<stop offset="1" stop-color="#001EFF"/>
</radialGradient>
<radialGradient id="paint5_diamond_30_49" cx="0" cy="0" r="1" gradientUnits="userSpaceOnUse" gradientTransform="translate(602.678 515.203) rotate(90) scale(128.797 152.636)">
<stop offset="0.583333" stop-color="#001AFF"/>
<stop offset="0.901042" stop-color="#D943E8"/>
<stop offset="1" stop-color="#001CFF"/>
</radialGradient>
</defs>
</svg>
