<svg width="264" height="184" viewBox="0 0 264 184" fill="none" xmlns="http://www.w3.org/2000/svg">
<path d="M210.178 162.58C222.502 156.285 232.851 146.714 240.086 134.92C247.96 121.941 252.035 107.012 251.846 91.8311C252.052 87.2621 251.107 82.7143 249.096 78.6087C247.267 75.3393 244.301 72.8572 240.76 71.6361C234.369 69.5178 227.392 72.1633 221.57 75.5444C207.851 83.5132 196.959 95.5692 183.766 104.384C178.345 108.008 164.4 114.915 165.091 102.731C165.196 98.7522 166.002 94.8238 167.474 91.1241C170.178 85.0725 173.359 79.245 176.989 73.6992C178.247 72.0387 178.869 69.982 178.741 67.9034C178.614 65.8232 177.746 63.8588 176.294 62.3647C174.84 60.8721 172.9 59.9483 170.826 59.7626C169.502 59.7224 168.179 59.4474 166.857 59.4626L166.857 59.4645C156.492 59.4171 146.306 62.178 137.384 67.4525C133.102 70.0174 128.635 72.276 124.219 74.614C123.166 75.1499 122.056 75.5749 120.913 75.8782C116.475 77.128 114.809 76.1787 113.385 71.6906C113.162 70.9883 112.946 70.2855 112.71 69.5882C111.04 64.6519 108.791 63.4794 103.704 64.9261C102.569 65.2499 101.465 65.6801 100.343 66.0516C93.7709 68.2286 87.2231 70.4864 80.6141 72.5454C76.549 73.8119 73.7455 71.6141 74.2351 67.4476L74.2356 67.4457C74.5528 64.9672 75.2465 62.5508 76.294 60.282C80.6618 50.652 87.6358 42.732 93.8465 34.3354L93.8446 34.335C96.0923 31.3995 97.5517 27.9382 98.0875 24.2794C98.4433 21.9359 97.8142 19.5486 96.3497 17.6847C94.8877 15.8192 92.7192 14.6417 90.3578 14.4275C83.5331 13.6771 76.679 15.5654 71.2039 19.7068C63.0965 25.0165 55.4077 31.0153 47.8539 37.1088C43.5091 40.8749 39.3632 44.8671 35.4401 49.0731C32.5146 52.4338 28.6582 54.8572 24.3615 56.0336C23.16 56.1487 21.9531 56.1427 20.7531 56.0148C20.8138 54.5291 20.9984 53.0507 21.3037 51.5933C22.8484 46.1556 26.1788 41.3958 30.7564 38.0788C32.3154 36.973 34.5285 36.3771 35.0979 33.3043C33.8594 33.5057 32.6526 33.8709 31.5118 34.3918C29.5878 35.7343 27.7438 37.1913 25.9891 38.7488C22.0895 42.6197 19.3479 47.5029 18.0735 52.8451C17.345 54.3084 17.5422 56.0629 18.5792 57.3256C19.6139 58.5897 21.2954 59.1272 22.8722 58.6989C25.1866 58.4496 27.4288 57.741 29.4666 56.6164C38.3251 51.6328 45.2648 44.1774 52.2291 37.0824C60.2827 28.8381 70.0399 22.4499 80.8179 18.3715C83.704 17.2782 86.7631 16.715 89.848 16.7095C91.5228 16.5825 93.1564 17.2686 94.2367 18.5539C95.3189 19.8396 95.7128 21.5683 95.2977 23.196C95.224 24.5246 94.913 25.8286 94.3754 27.0458C93.1105 29.5279 91.6448 31.917 90.14 34.2666C86.6507 39.7139 82.9337 45.0198 79.6042 50.5605C76.8824 55.0913 74.4295 59.8021 72.1584 64.5749L72.1598 64.5773C71.1451 66.1604 70.8698 68.1097 71.4059 69.9131C71.9421 71.7166 73.237 73.1973 74.9513 73.9698C76.2673 74.602 77.7073 74.9295 79.1652 74.9287C83.4334 74.7248 87.5982 73.5573 91.3494 71.5139C95.7466 69.1086 100.642 67.7599 105.65 67.5733C106.823 67.4494 107.996 67.8081 108.899 68.5681C109.801 69.328 110.355 70.4221 110.433 71.6006C111.766 78.1266 115.464 80.3566 121.575 78.1783C126.564 76.3733 131.355 74.0606 135.871 71.2766C143.402 66.8987 151.78 64.178 160.443 63.2896C164.7 62.8113 169.009 63.1726 173.128 64.352C174.311 64.5772 175.317 65.35 175.841 66.4349C176.364 67.5174 176.343 68.7876 175.783 69.8534C175.129 71.4987 174.296 73.0667 173.296 74.5277C170.684 78.5434 168.446 82.789 166.611 87.2144C164.609 91.7944 161.757 95.949 161.601 101.151C161.452 106.119 164.561 111.565 169.486 112.236C171.481 112.399 173.486 112.096 175.345 111.352C195.979 104.307 208.703 81.9391 229.584 75.6632C233.785 74.0584 238.456 74.2146 242.539 76.0971C248.14 79.2868 249.546 86.6943 249.519 93.141C249.467 109.395 244.097 125.183 234.231 138.099C224.363 151.013 210.541 160.346 194.875 164.671L209.83 149.72C210.63 148.92 211.492 147.779 210.968 146.778C210.215 145.338 208.019 146.299 206.828 147.404L206.827 147.405C198.806 154.838 191.389 162.899 184.646 171.509C186.568 172.846 189.029 173.133 191.206 172.275C197.211 170.939 203.214 169.59 209.214 168.229C213.033 167.363 221.715 167.493 223.65 163.359C220.844 163.142 218.021 163.263 215.244 163.724C212.339 163.505 209.415 163.691 206.562 164.277C207.784 163.745 208.989 163.179 210.177 162.578L210.178 162.58Z" fill="black"/>
</svg>
