<svg width="23" height="24" viewBox="0 0 23 24" fill="none" xmlns="http://www.w3.org/2000/svg">
<path d="M14.8813 2.89224C11.5122 -0.476937 5.95889 -0.476937 2.52688 2.89224C-0.842293 6.26141 -0.842293 11.8147 2.52688 15.2467C5.70897 18.4288 10.7634 18.6159 14.1326 15.8708L21.3079 23.0462C21.6822 23.4205 22.2437 23.4205 22.6185 23.0462C22.9928 22.6719 22.9928 22.1104 22.6185 21.7356L15.5048 14.5603C18.2504 11.1284 18.0632 6.0744 14.8811 2.89219L14.8813 2.89224ZM13.5086 13.8739C10.8258 16.5567 6.52034 16.5567 3.83708 13.8739C1.15427 11.191 1.15427 6.88559 3.83708 4.20233C6.5199 1.51952 10.8253 1.51952 13.5086 4.20233C16.1914 6.88559 16.1914 11.2532 13.5086 13.8739Z" fill="black"/>
</svg>
